<mxfile host="app.diagrams.net" modified="2023-09-23T12:36:13.060Z" agent="Mozilla/5.0 (X11; Linux x86_64; rv:109.0) Gecko/20100101 Firefox/117.0" etag="XHqsuBI7iKhI6NY462fF" version="21.8.0" type="device">
  <diagram name="Страница — 1" id="5Cqo7wR6bdedvOOV6QNz">
    <mxGraphModel dx="1434" dy="722" grid="1" gridSize="10" guides="1" tooltips="1" connect="1" arrows="1" fold="1" page="1" pageScale="1" pageWidth="827" pageHeight="1169" math="0" shadow="0">
      <root>
        <mxCell id="0" />
        <mxCell id="1" parent="0" />
        <mxCell id="tvakT9BRgmzE_acjiOMg-1" value="&lt;div&gt;Assembler&lt;/div&gt;" style="rounded=1;whiteSpace=wrap;html=1;" vertex="1" parent="1">
          <mxGeometry x="60" y="500" width="120" height="60" as="geometry" />
        </mxCell>
        <mxCell id="tvakT9BRgmzE_acjiOMg-4" style="edgeStyle=orthogonalEdgeStyle;rounded=0;orthogonalLoop=1;jettySize=auto;html=1;exitX=0;exitY=0;exitDx=80;exitDy=65;exitPerimeter=0;" edge="1" parent="1" source="tvakT9BRgmzE_acjiOMg-2" target="tvakT9BRgmzE_acjiOMg-3">
          <mxGeometry relative="1" as="geometry" />
        </mxCell>
        <mxCell id="tvakT9BRgmzE_acjiOMg-6" style="edgeStyle=orthogonalEdgeStyle;rounded=0;orthogonalLoop=1;jettySize=auto;html=1;exitX=0;exitY=0;exitDx=80;exitDy=65;exitPerimeter=0;entryX=0;entryY=0.5;entryDx=0;entryDy=0;" edge="1" parent="1" source="tvakT9BRgmzE_acjiOMg-2" target="tvakT9BRgmzE_acjiOMg-5">
          <mxGeometry relative="1" as="geometry" />
        </mxCell>
        <mxCell id="tvakT9BRgmzE_acjiOMg-9" style="edgeStyle=orthogonalEdgeStyle;rounded=0;orthogonalLoop=1;jettySize=auto;html=1;exitX=0;exitY=0;exitDx=80;exitDy=65;exitPerimeter=0;entryX=0;entryY=0.5;entryDx=0;entryDy=0;" edge="1" parent="1" source="tvakT9BRgmzE_acjiOMg-2" target="tvakT9BRgmzE_acjiOMg-7">
          <mxGeometry relative="1" as="geometry" />
        </mxCell>
        <mxCell id="tvakT9BRgmzE_acjiOMg-12" style="edgeStyle=orthogonalEdgeStyle;rounded=0;orthogonalLoop=1;jettySize=auto;html=1;exitX=0;exitY=0;exitDx=80;exitDy=65;exitPerimeter=0;entryX=0;entryY=0.5;entryDx=0;entryDy=0;" edge="1" parent="1" source="tvakT9BRgmzE_acjiOMg-2" target="tvakT9BRgmzE_acjiOMg-11">
          <mxGeometry relative="1" as="geometry" />
        </mxCell>
        <mxCell id="tvakT9BRgmzE_acjiOMg-16" style="edgeStyle=orthogonalEdgeStyle;rounded=0;orthogonalLoop=1;jettySize=auto;html=1;exitX=0;exitY=0;exitDx=80;exitDy=65;exitPerimeter=0;entryX=0;entryY=0.5;entryDx=0;entryDy=0;" edge="1" parent="1" source="tvakT9BRgmzE_acjiOMg-2" target="tvakT9BRgmzE_acjiOMg-15">
          <mxGeometry relative="1" as="geometry" />
        </mxCell>
        <mxCell id="tvakT9BRgmzE_acjiOMg-2" value="Program.asm" style="shape=note;whiteSpace=wrap;html=1;backgroundOutline=1;darkOpacity=0.05;" vertex="1" parent="1">
          <mxGeometry x="74" y="160" width="80" height="100" as="geometry" />
        </mxCell>
        <mxCell id="tvakT9BRgmzE_acjiOMg-29" style="edgeStyle=orthogonalEdgeStyle;rounded=0;orthogonalLoop=1;jettySize=auto;html=1;entryX=0.976;entryY=0.136;entryDx=0;entryDy=0;entryPerimeter=0;" edge="1" parent="1" source="tvakT9BRgmzE_acjiOMg-3" target="tvakT9BRgmzE_acjiOMg-27">
          <mxGeometry relative="1" as="geometry">
            <mxPoint x="430" y="560" as="targetPoint" />
            <Array as="points">
              <mxPoint x="440" y="190" />
              <mxPoint x="440" y="560" />
            </Array>
          </mxGeometry>
        </mxCell>
        <mxCell id="tvakT9BRgmzE_acjiOMg-31" value="PTR To" style="edgeLabel;html=1;align=center;verticalAlign=middle;resizable=0;points=[];" vertex="1" connectable="0" parent="tvakT9BRgmzE_acjiOMg-29">
          <mxGeometry x="0.4162" y="2" relative="1" as="geometry">
            <mxPoint as="offset" />
          </mxGeometry>
        </mxCell>
        <mxCell id="tvakT9BRgmzE_acjiOMg-3" value="Macro obj" style="rounded=1;whiteSpace=wrap;html=1;" vertex="1" parent="1">
          <mxGeometry x="274" y="150" width="120" height="60" as="geometry" />
        </mxCell>
        <mxCell id="tvakT9BRgmzE_acjiOMg-5" value="Command" style="rounded=1;whiteSpace=wrap;html=1;" vertex="1" parent="1">
          <mxGeometry x="274" y="230" width="120" height="60" as="geometry" />
        </mxCell>
        <mxCell id="tvakT9BRgmzE_acjiOMg-7" value="Command" style="rounded=1;whiteSpace=wrap;html=1;" vertex="1" parent="1">
          <mxGeometry x="274" y="310" width="120" height="60" as="geometry" />
        </mxCell>
        <mxCell id="tvakT9BRgmzE_acjiOMg-33" style="edgeStyle=orthogonalEdgeStyle;rounded=0;orthogonalLoop=1;jettySize=auto;html=1;" edge="1" parent="1" source="tvakT9BRgmzE_acjiOMg-10">
          <mxGeometry relative="1" as="geometry">
            <mxPoint x="560" y="345" as="targetPoint" />
            <Array as="points">
              <mxPoint x="530" y="345" />
              <mxPoint x="530" y="345" />
            </Array>
          </mxGeometry>
        </mxCell>
        <mxCell id="tvakT9BRgmzE_acjiOMg-34" value="Convert" style="edgeLabel;html=1;align=center;verticalAlign=middle;resizable=0;points=[];" vertex="1" connectable="0" parent="tvakT9BRgmzE_acjiOMg-33">
          <mxGeometry x="0.1918" y="3" relative="1" as="geometry">
            <mxPoint as="offset" />
          </mxGeometry>
        </mxCell>
        <mxCell id="tvakT9BRgmzE_acjiOMg-10" value="" style="rounded=0;whiteSpace=wrap;html=1;fillColor=none;" vertex="1" parent="1">
          <mxGeometry x="249" y="220" width="165" height="250" as="geometry" />
        </mxCell>
        <mxCell id="tvakT9BRgmzE_acjiOMg-41" style="edgeStyle=orthogonalEdgeStyle;rounded=0;orthogonalLoop=1;jettySize=auto;html=1;entryX=-0.037;entryY=0.86;entryDx=0;entryDy=0;entryPerimeter=0;" edge="1" parent="1" source="tvakT9BRgmzE_acjiOMg-11" target="tvakT9BRgmzE_acjiOMg-35">
          <mxGeometry relative="1" as="geometry">
            <mxPoint x="600" y="420" as="targetPoint" />
          </mxGeometry>
        </mxCell>
        <mxCell id="tvakT9BRgmzE_acjiOMg-42" value="Convert" style="edgeLabel;html=1;align=center;verticalAlign=middle;resizable=0;points=[];" vertex="1" connectable="0" parent="tvakT9BRgmzE_acjiOMg-41">
          <mxGeometry x="0.3364" y="-4" relative="1" as="geometry">
            <mxPoint as="offset" />
          </mxGeometry>
        </mxCell>
        <mxCell id="tvakT9BRgmzE_acjiOMg-11" value="Macro pointer" style="rounded=1;whiteSpace=wrap;html=1;" vertex="1" parent="1">
          <mxGeometry x="274" y="390" width="120" height="60" as="geometry" />
        </mxCell>
        <mxCell id="tvakT9BRgmzE_acjiOMg-14" value="Список объектов команд" style="text;html=1;strokeColor=none;fillColor=none;align=center;verticalAlign=middle;whiteSpace=wrap;rounded=0;" vertex="1" parent="1">
          <mxGeometry x="134" y="310" width="80" height="120" as="geometry" />
        </mxCell>
        <mxCell id="tvakT9BRgmzE_acjiOMg-15" value="Mark obj" style="rounded=1;whiteSpace=wrap;html=1;" vertex="1" parent="1">
          <mxGeometry x="274" y="70" width="120" height="60" as="geometry" />
        </mxCell>
        <mxCell id="tvakT9BRgmzE_acjiOMg-17" value="" style="rounded=1;whiteSpace=wrap;html=1;" vertex="1" parent="1">
          <mxGeometry x="510" y="30" width="270" height="80" as="geometry" />
        </mxCell>
        <mxCell id="tvakT9BRgmzE_acjiOMg-18" value="Command" style="text;html=1;strokeColor=none;fillColor=none;align=center;verticalAlign=middle;whiteSpace=wrap;rounded=0;" vertex="1" parent="1">
          <mxGeometry x="520" y="55" width="60" height="30" as="geometry" />
        </mxCell>
        <mxCell id="tvakT9BRgmzE_acjiOMg-19" value="" style="rounded=1;whiteSpace=wrap;html=1;" vertex="1" parent="1">
          <mxGeometry x="590" y="30" width="190" height="80" as="geometry" />
        </mxCell>
        <mxCell id="tvakT9BRgmzE_acjiOMg-20" value="Args" style="text;html=1;strokeColor=none;fillColor=none;align=center;verticalAlign=middle;whiteSpace=wrap;rounded=0;" vertex="1" parent="1">
          <mxGeometry x="580" y="30" width="60" height="30" as="geometry" />
        </mxCell>
        <mxCell id="tvakT9BRgmzE_acjiOMg-22" value="Data" style="rounded=1;whiteSpace=wrap;html=1;" vertex="1" parent="1">
          <mxGeometry x="600" y="60" width="70" height="30" as="geometry" />
        </mxCell>
        <mxCell id="tvakT9BRgmzE_acjiOMg-43" style="edgeStyle=orthogonalEdgeStyle;rounded=0;orthogonalLoop=1;jettySize=auto;html=1;exitX=0.5;exitY=1;exitDx=0;exitDy=0;" edge="1" parent="1" source="tvakT9BRgmzE_acjiOMg-23">
          <mxGeometry relative="1" as="geometry">
            <mxPoint x="725" y="170" as="targetPoint" />
          </mxGeometry>
        </mxCell>
        <mxCell id="tvakT9BRgmzE_acjiOMg-45" value="Translate" style="edgeLabel;html=1;align=center;verticalAlign=middle;resizable=0;points=[];" vertex="1" connectable="0" parent="tvakT9BRgmzE_acjiOMg-43">
          <mxGeometry x="0.1551" y="1" relative="1" as="geometry">
            <mxPoint as="offset" />
          </mxGeometry>
        </mxCell>
        <mxCell id="tvakT9BRgmzE_acjiOMg-23" value="Mark obj" style="rounded=1;whiteSpace=wrap;html=1;" vertex="1" parent="1">
          <mxGeometry x="690" y="60" width="70" height="30" as="geometry" />
        </mxCell>
        <mxCell id="tvakT9BRgmzE_acjiOMg-24" value="" style="endArrow=none;dashed=1;html=1;dashPattern=1 3;strokeWidth=2;rounded=0;exitX=0.855;exitY=0.16;exitDx=0;exitDy=0;exitPerimeter=0;entryX=0.044;entryY=1;entryDx=0;entryDy=0;entryPerimeter=0;" edge="1" parent="1" source="tvakT9BRgmzE_acjiOMg-10" target="tvakT9BRgmzE_acjiOMg-17">
          <mxGeometry width="50" height="50" relative="1" as="geometry">
            <mxPoint x="470" y="340" as="sourcePoint" />
            <mxPoint x="520" y="290" as="targetPoint" />
          </mxGeometry>
        </mxCell>
        <mxCell id="tvakT9BRgmzE_acjiOMg-25" value="Command" style="rounded=1;whiteSpace=wrap;html=1;" vertex="1" parent="1">
          <mxGeometry x="274" y="536" width="120" height="60" as="geometry" />
        </mxCell>
        <mxCell id="tvakT9BRgmzE_acjiOMg-26" value="Command" style="rounded=1;whiteSpace=wrap;html=1;" vertex="1" parent="1">
          <mxGeometry x="274" y="616" width="120" height="60" as="geometry" />
        </mxCell>
        <mxCell id="tvakT9BRgmzE_acjiOMg-39" style="edgeStyle=orthogonalEdgeStyle;rounded=0;orthogonalLoop=1;jettySize=auto;html=1;entryX=0.5;entryY=1;entryDx=0;entryDy=0;" edge="1" parent="1" source="tvakT9BRgmzE_acjiOMg-27" target="tvakT9BRgmzE_acjiOMg-11">
          <mxGeometry relative="1" as="geometry">
            <Array as="points">
              <mxPoint x="340" y="540" />
              <mxPoint x="340" y="540" />
            </Array>
          </mxGeometry>
        </mxCell>
        <mxCell id="tvakT9BRgmzE_acjiOMg-40" value="SUBSTITUTE" style="edgeLabel;html=1;align=center;verticalAlign=middle;resizable=0;points=[];" vertex="1" connectable="0" parent="tvakT9BRgmzE_acjiOMg-39">
          <mxGeometry x="-0.2105" relative="1" as="geometry">
            <mxPoint as="offset" />
          </mxGeometry>
        </mxCell>
        <mxCell id="tvakT9BRgmzE_acjiOMg-27" value="" style="rounded=0;whiteSpace=wrap;html=1;fillColor=none;" vertex="1" parent="1">
          <mxGeometry x="249" y="526" width="165" height="250" as="geometry" />
        </mxCell>
        <mxCell id="tvakT9BRgmzE_acjiOMg-28" value="Macro pointer" style="rounded=1;whiteSpace=wrap;html=1;" vertex="1" parent="1">
          <mxGeometry x="274" y="696" width="120" height="60" as="geometry" />
        </mxCell>
        <mxCell id="tvakT9BRgmzE_acjiOMg-35" value="&lt;div&gt;Program.bin&lt;/div&gt;" style="shape=note;whiteSpace=wrap;html=1;backgroundOutline=1;darkOpacity=0.05;" vertex="1" parent="1">
          <mxGeometry x="560" y="295" width="80" height="100" as="geometry" />
        </mxCell>
        <mxCell id="tvakT9BRgmzE_acjiOMg-44" value="&lt;div&gt;Address&lt;/div&gt;&lt;div&gt;&lt;br&gt;&lt;/div&gt;" style="text;html=1;strokeColor=none;fillColor=none;align=center;verticalAlign=middle;whiteSpace=wrap;rounded=0;" vertex="1" parent="1">
          <mxGeometry x="695" y="180" width="60" height="30" as="geometry" />
        </mxCell>
        <mxCell id="tvakT9BRgmzE_acjiOMg-46" value="Команда при конвертации вызывает трансляцию у всех аргументов" style="text;html=1;strokeColor=none;fillColor=none;align=center;verticalAlign=middle;whiteSpace=wrap;rounded=0;" vertex="1" parent="1">
          <mxGeometry x="600" y="130" width="70" height="90" as="geometry" />
        </mxCell>
      </root>
    </mxGraphModel>
  </diagram>
</mxfile>
